<svg xmlns="http://www.w3.org/2000/svg" width="92.557" height="28" viewBox="0 0 92.557 28">
  <g id="logo" transform="translate(-0.01 -0.004)">
    <path id="Path_11" data-name="Path 11" d="M333,155.65l-1.559,1.626v2.937H328.77V148.6h2.671v5.425l5.143-5.425h2.987l-4.812,5.176,5.093,6.437h-3.135L333,155.65Zm15.181,2.074h-5.392l-1.029,2.489h-2.754l5.176-11.613h2.655l5.193,11.613h-2.821l-1.029-2.489Zm-.846-2.041-1.841-4.446-1.841,4.446Zm9.722,4.729a9.494,9.494,0,0,1-2.662-.373,6.227,6.227,0,0,1-2.065-.971l.913-2.024a6.172,6.172,0,0,0,1.776.879,6.675,6.675,0,0,0,2.057.332,3.283,3.283,0,0,0,1.693-.34,1.026,1.026,0,0,0,.547-.9.863.863,0,0,0-.323-.688,2.428,2.428,0,0,0-.83-.44q-.506-.166-1.368-.365a18.9,18.9,0,0,1-2.173-.63,3.522,3.522,0,0,1-1.451-1.012,2.731,2.731,0,0,1-.605-1.859,3.235,3.235,0,0,1,.547-1.834,3.691,3.691,0,0,1,1.651-1.3,6.732,6.732,0,0,1,2.7-.481,8.936,8.936,0,0,1,2.173.265,6.417,6.417,0,0,1,1.859.763l-.83,2.041a6.473,6.473,0,0,0-3.218-.913,3.019,3.019,0,0,0-1.668.365,1.115,1.115,0,0,0-.54.962.942.942,0,0,0,.622.888,9.715,9.715,0,0,0,1.9.572,18.9,18.9,0,0,1,2.173.63,3.588,3.588,0,0,1,1.451,1,2.668,2.668,0,0,1,.605,1.841,3.169,3.169,0,0,1-.556,1.816,3.739,3.739,0,0,1-1.668,1.3,6.791,6.791,0,0,1-2.7.481Zm10.584,0a9.494,9.494,0,0,1-2.662-.373,6.227,6.227,0,0,1-2.065-.971l.913-2.024a6.172,6.172,0,0,0,1.776.879,6.675,6.675,0,0,0,2.057.332,3.283,3.283,0,0,0,1.693-.34,1.026,1.026,0,0,0,.547-.9.863.863,0,0,0-.323-.688,2.429,2.429,0,0,0-.83-.44q-.506-.166-1.368-.365a18.9,18.9,0,0,1-2.173-.63,3.522,3.522,0,0,1-1.451-1.012,2.731,2.731,0,0,1-.605-1.859,3.234,3.234,0,0,1,.547-1.834,3.691,3.691,0,0,1,1.651-1.3,6.732,6.732,0,0,1,2.7-.481,8.936,8.936,0,0,1,2.173.265,6.417,6.417,0,0,1,1.859.763l-.83,2.041a6.473,6.473,0,0,0-3.218-.913,3.019,3.019,0,0,0-1.668.365,1.115,1.115,0,0,0-.54.962.942.942,0,0,0,.622.888,9.716,9.716,0,0,0,1.9.572,18.9,18.9,0,0,1,2.173.63,3.588,3.588,0,0,1,1.451,1,2.668,2.668,0,0,1,.605,1.841,3.169,3.169,0,0,1-.556,1.816,3.739,3.739,0,0,1-1.668,1.3,6.791,6.791,0,0,1-2.7.481Zm14.417-2.688h-5.392l-1.029,2.489h-2.754l5.176-11.613h2.655l5.193,11.613h-2.821l-1.029-2.489Zm-.846-2.041-1.841-4.446-1.841,4.446h3.683Z" transform="translate(-293.339 -132.408)" fill="#0068cf"/>
    <path id="Path_12" data-name="Path 12" d="M373.859,13.421c.1.228.2.461.3.7q.142-.367.3-.713t.324-.671L377.895,6.6a.972.972,0,0,1,.171-.246.565.565,0,0,1,.2-.129.675.675,0,0,1,.246-.042h2.47V17.926H378.5v-6.6c0-.338.016-.706.05-1.1l-3.216,6.24a1.067,1.067,0,0,1-.4.442,1.116,1.116,0,0,1-.579.15h-.384a1.113,1.113,0,0,1-.579-.15,1.067,1.067,0,0,1-.4-.442l-3.233-6.249c.023.194.039.388.051.579s.016.368.016.529v6.6h-2.482V6.18h2.47a.675.675,0,0,1,.246.042.575.575,0,0,1,.2.129,1,1,0,0,1,.17.246l3.124,6.164q.166.317.321.659Zm-25.2,4.891a5.936,5.936,0,0,0,4.808-1.993l-.956-1.025a1.948,1.948,0,0,0-.487-.339.826.826,0,0,0-.844.143c-.068.051-.135.1-.2.145h0a3.737,3.737,0,0,1-2.236.688,3.484,3.484,0,0,1-3.4-3.686,3.485,3.485,0,0,1,3.4-3.686,3.679,3.679,0,0,1,2.093.58h0c.126.08.249.168.373.263a.7.7,0,0,0,.653.047,4.89,4.89,0,0,0,1.318-1.221L353.2,8.2l.024-.027.024-.028.024-.028.024-.028a6.186,6.186,0,0,0-10.655,4.154,5.927,5.927,0,0,0,6.015,6.065Zm-19.9-.385h2.584V6.183H328.76Zm7.42,0h2.584V8.565h3.574V6.183h-9.732V8.565h3.574v9.363Zm23.638.385a6.067,6.067,0,1,0-6.217-6.065,6.064,6.064,0,0,0,6.217,6.065Zm.033-2.379a3.563,3.563,0,0,1-3.552-3.686,3.516,3.516,0,0,1,3.519-3.686,3.563,3.563,0,0,1,3.552,3.686A3.516,3.516,0,0,1,359.851,15.934Z" transform="translate(-293.331 -5.51)" fill="#323232"/>
    <path id="Path_13" data-name="Path 13" d="M140.363,13.81l-7.728-2.071a2.043,2.043,0,0,1-1.44-2.5l2.071-7.728a2.043,2.043,0,0,1,2.5-1.44l7.728,2.071a2.043,2.043,0,0,1,1.44,2.5l-2.071,7.728a2.042,2.042,0,0,1-2.5,1.44Z" transform="translate(-116.988)" fill="#0068cf" fill-rule="evenodd"/>
    <path id="Path_14" data-name="Path 14" d="M10.048,18.558h-8A2.044,2.044,0,0,1,.01,16.519v-8A2.044,2.044,0,0,1,2.047,6.48h8a2.044,2.044,0,0,1,2.037,2.038v8a2.044,2.044,0,0,1-2.037,2.038Z" transform="translate(0 -5.778)" fill="#323232" fill-rule="evenodd"/>
    <path id="Path_15" data-name="Path 15" d="M149.5,158.035h-8A2.044,2.044,0,0,1,139.46,156v-8a2.044,2.044,0,0,1,2.038-2.037h8A2.044,2.044,0,0,1,151.538,148v8A2.044,2.044,0,0,1,149.5,158.035Z" transform="translate(-124.426 -130.23)" fill="#323232" fill-rule="evenodd"/>
    <path id="Path_16" data-name="Path 16" d="M10.048,158.035h-8A2.043,2.043,0,0,1,.01,156v-8a2.043,2.043,0,0,1,2.037-2.037h8A2.043,2.043,0,0,1,12.085,148v8a2.043,2.043,0,0,1-2.037,2.037Z" transform="translate(0 -130.23)" fill="#323232" fill-rule="evenodd"/>
  </g>
</svg>
